<?xml version="1.0" encoding="UTF-8" standalone="no"?>
<!-- Created with Inkscape (http://www.inkscape.org/) -->

<svg
   xmlns:dc="http://purl.org/dc/elements/1.1/"
   xmlns:cc="http://creativecommons.org/ns#"
   xmlns:rdf="http://www.w3.org/1999/02/22-rdf-syntax-ns#"
   xmlns:svg="http://www.w3.org/2000/svg"
   xmlns="http://www.w3.org/2000/svg"
   xmlns:sodipodi="http://sodipodi.sourceforge.net/DTD/sodipodi-0.dtd"
   xmlns:inkscape="http://www.inkscape.org/namespaces/inkscape"
   width="2000"
   height="500"
   id="svg2"
   version="1.1"
   inkscape:version="0.48.2 r9819"
   sodipodi:docname="remotte logo vector.svg"
   inkscape:export-filename="/Users/intes/Dropbox/Aglass/imagenes web remotte/remotte-logo/remotte logo camiseta BLANCO 2.png"
   inkscape:export-xdpi="90"
   inkscape:export-ydpi="90">
  <defs
     id="defs4" />
  <sodipodi:namedview
     id="base"
     pagecolor="#ffffff"
     bordercolor="#666666"
     borderopacity="1.0"
     inkscape:pageopacity="0.0"
     inkscape:pageshadow="2"
     inkscape:zoom="0.21566757"
     inkscape:cx="691.31579"
     inkscape:cy="70.908685"
     inkscape:document-units="px"
     inkscape:current-layer="g4819"
     showgrid="false"
     inkscape:window-width="1731"
     inkscape:window-height="713"
     inkscape:window-x="84"
     inkscape:window-y="36"
     inkscape:window-maximized="0" />
  <metadata
     id="metadata7">
    <rdf:RDF>
      <cc:Work
         rdf:about="">
        <dc:format>image/svg+xml</dc:format>
        <dc:type
           rdf:resource="http://purl.org/dc/dcmitype/StillImage" />
        <dc:title />
      </cc:Work>
    </rdf:RDF>
  </metadata>
  <g
     inkscape:label="Capa 1"
     inkscape:groupmode="layer"
     id="layer1"
     style="display:inline"
     transform="translate(0,-552.36218)" />
  <g
     inkscape:groupmode="layer"
     id="layer2"
     inkscape:label="logo blanco"
     transform="translate(0,-552.36218)"
     style="display:none">
    <g
       id="g3145"
       transform="matrix(4.4049804,0,0,4.4049804,-392.3867,-278.60811)"
       style="fill:#000000">
      <path
         style="fill:#000000;fill-rule:evenodd"
         inkscape:connector-curvature="0"
         clip-rule="evenodd"
         d="m 161.048,238.607 c 0,4.387 -0.091,8.575 0.025,12.757 0.122,4.388 4.439,8.373 8.942,8.38 11.814,0.019 23.627,0.007 35.441,0.007 0.492,0 0.982,0 1.554,0 0,1.253 0,2.426 0,3.691 -0.304,0.014 -0.583,0.039 -0.862,0.039 -11.896,0.002 -23.793,0.017 -35.689,-0.005 -6.115,-0.011 -11.275,-3.825 -12.708,-9.382 -0.266,-1.031 -0.389,-2.125 -0.394,-3.191 -0.032,-8 -0.049,-16 -0.001,-24 0.02,-3.236 1.056,-6.194 3.021,-8.775 2.212,-2.906 5.299,-4.293 8.843,-4.337 8.745,-0.108 17.494,-0.149 26.237,0 6.475,0.111 11.898,5.859 11.874,12.207 -0.024,6.636 -5.399,12.448 -11.986,12.54 -10.9,0.151 -21.803,0.06 -32.704,0.07 -0.488,-0.001 -0.974,-0.001 -1.593,-0.001 z m 0.049,-3.7 c 0.607,0 1.097,0 1.586,0 10.406,0 20.812,-0.062 31.217,0.029 4.183,0.037 6.843,-2.02 8.7,-5.494 2.924,-5.474 -1.843,-11.898 -7.077,-11.955 -8.497,-0.093 -16.998,-0.112 -25.493,0.032 -4.908,0.083 -8.586,3.409 -8.893,7.891 -0.212,3.091 -0.04,6.206 -0.04,9.497 z"
         id="path3147" />
      <path
         style="fill:#000000;fill-rule:evenodd"
         inkscape:connector-curvature="0"
         clip-rule="evenodd"
         d="m 472.261,238.607 c 0,4.471 -0.167,8.784 0.048,13.078 0.216,4.323 4.542,8.056 8.976,8.061 11.772,0.014 23.545,0.005 35.317,0.005 0.495,0 0.991,0 1.586,0 0,1.214 0,2.39 0,3.662 -0.328,0.021 -0.686,0.066 -1.042,0.066 -11.815,0.004 -23.628,0.016 -35.442,-10e-4 -6.138,-0.009 -11.285,-3.777 -12.739,-9.336 -0.28,-1.069 -0.407,-2.206 -0.411,-3.313 -0.034,-7.958 -0.046,-15.917 -0.004,-23.875 0.017,-3.238 1.04,-6.196 2.992,-8.786 2.199,-2.917 5.28,-4.327 8.823,-4.373 8.786,-0.113 17.577,-0.162 26.36,0.004 6.472,0.122 11.855,5.914 11.8,12.274 -0.059,6.631 -5.452,12.379 -12.06,12.47 -10.361,0.143 -20.725,0.056 -31.088,0.066 -0.989,-0.001 -1.978,-0.002 -3.116,-0.002 z m 0.028,-3.7 c 0.616,0 1.108,0 1.6,0 10.406,0 20.812,-0.061 31.217,0.028 4.183,0.037 6.838,-2.028 8.692,-5.504 2.915,-5.46 -1.846,-11.891 -7.092,-11.945 -8.497,-0.088 -16.997,-0.112 -25.493,0.036 -4.907,0.085 -8.583,3.422 -8.884,7.9 -0.206,3.09 -0.04,6.204 -0.04,9.485 z"
         id="path3149" />
      <path
         style="fill:#000000;fill-rule:evenodd"
         inkscape:connector-curvature="0"
         clip-rule="evenodd"
         d="m 306.582,263.482 c -3.938,0 -7.875,0.009 -11.812,-0.001 -7.605,-0.023 -13.048,-5.496 -13.051,-13.113 -0.003,-8.04 -0.004,-16.079 0.001,-24.119 0.004,-7.113 5.366,-12.5 12.481,-12.514 8.123,-0.016 16.245,-0.016 24.368,0 7.303,0.014 12.819,5.528 12.83,12.814 0.011,8.081 0.026,16.162 -0.005,24.242 -0.023,5.985 -3.785,10.959 -9.311,12.295 -1.193,0.289 -2.459,0.364 -3.693,0.379 -3.935,0.047 -7.871,0.017 -11.808,0.017 z m -21.169,-25.093 c 0.005,0 0.011,0 0.017,0 0,3.979 -0.101,7.961 0.024,11.937 0.172,5.454 3.963,9.316 9.412,9.422 7.583,0.146 15.171,0.182 22.753,0.04 6.165,-0.116 9.876,-3.816 10.019,-10.015 0.17,-7.416 0.161,-14.841 0.002,-22.256 -0.124,-5.711 -4.151,-9.864 -9.696,-9.979 -7.706,-0.161 -15.421,-0.154 -23.127,-0.002 -5.577,0.109 -9.228,3.928 -9.384,9.541 -0.104,3.766 -0.02,7.54 -0.02,11.312 z"
         id="path3151" />
      <path
         style="fill:#000000;fill-rule:evenodd"
         inkscape:connector-curvature="0"
         clip-rule="evenodd"
         d="m 269.778,263.419 c -1.311,0 -2.417,0 -3.664,0 0,-0.548 0,-1.035 0,-1.521 0,-11.692 0.011,-23.383 -0.006,-35.075 -0.007,-4.746 -2.67,-8.131 -7.152,-9.188 -0.241,-0.056 -0.487,-0.136 -0.73,-0.136 -3.316,-0.02 -6.632,-0.027 -9.949,-0.038 -0.408,-0.001 -0.816,0 -1.327,0 0,7.04 0,13.987 0,21.04 -1.357,0 -2.614,0 -4.028,0 0,-6.944 0,-13.922 0,-20.926 -3.87,0 -7.615,-0.295 -11.292,0.076 -4.418,0.446 -7.854,4.937 -7.863,9.671 -0.022,11.525 -0.008,23.051 -0.008,34.577 0,0.487 0,0.973 0,1.521 -1.261,0 -2.405,0 -3.731,0 0,-0.433 0,-0.871 0,-1.306 0,-11.774 -0.006,-23.549 0.002,-35.324 0.005,-7.523 5.499,-13.04 13.011,-13.056 8.001,-0.016 16.003,-0.016 24.004,0 7.055,0.014 12.725,5.677 12.731,12.714 0.011,11.898 0.003,23.798 0.003,35.696 -10e-4,0.405 -10e-4,0.81 -10e-4,1.275 z"
         id="path3153" />
      <path
         style="fill:#000000;fill-rule:evenodd"
         inkscape:connector-curvature="0"
         clip-rule="evenodd"
         d="m 393.876,226.102 c 0,1.36 0,2.474 0,3.724 -15.285,0 -30.554,0 -46.026,0 0,0.565 0,0.998 0,1.432 0,6.384 -0.006,12.769 0.002,19.152 0.008,5.249 4.123,9.339 9.396,9.34 11.689,0.004 23.38,10e-4 35.071,10e-4 0.487,0 0.974,0 1.524,0 0,1.254 0,2.399 0,3.641 -0.295,0.029 -0.608,0.086 -0.923,0.086 -11.938,0.004 -23.879,0.029 -35.817,-0.008 -5.974,-0.019 -11.063,-3.839 -12.515,-9.307 -0.242,-0.912 -0.406,-1.875 -0.408,-2.815 -0.027,-12.312 -0.021,-24.625 -0.021,-36.937 0,-0.164 0.021,-0.327 0.039,-0.585 1.181,0 2.355,0 3.642,0 0,4.029 0,8.074 0,12.275 15.377,0.001 30.647,0.001 46.036,0.001 z"
         id="path3155" />
      <path
         style="fill:#000000;fill-rule:evenodd"
         inkscape:connector-curvature="0"
         clip-rule="evenodd"
         d="m 409.804,226.123 c 15.394,0 30.633,0 45.957,0 0,1.286 0,2.459 0,3.767 -15.296,0 -30.568,0 -45.912,0 -0.023,0.53 -0.056,0.933 -0.058,1.336 -0.002,6.384 -0.008,12.769 0,19.153 0.007,5.265 4.106,9.368 9.364,9.371 11.691,0.004 23.382,10e-4 35.072,10e-4 0.49,0 0.979,0 1.544,0 0,1.264 0,2.437 0,3.731 -0.364,0 -0.685,0 -1.005,0 -11.856,0 -23.713,0.017 -35.569,-0.006 -6.107,-0.012 -11.269,-3.844 -12.699,-9.4 -0.244,-0.954 -0.382,-1.961 -0.384,-2.944 -0.026,-12.147 -0.017,-24.293 -0.017,-36.441 0,-0.278 0,-0.558 0,-0.897 1.259,0 2.404,0 3.706,0 10e-4,4.068 10e-4,8.142 10e-4,12.329 z"
         id="path3157" />
      <path
         style="fill:#000000;fill-rule:evenodd"
         inkscape:connector-curvature="0"
         clip-rule="evenodd"
         d="m 145.096,213.731 c 0,1.312 0,2.456 0,3.731 -0.538,0 -1.023,0 -1.507,0 -11.728,0 -23.455,-10e-4 -35.183,0 -5.174,0.001 -9.306,4.107 -9.31,9.282 -0.01,11.686 -0.003,23.372 -0.003,35.059 0,0.492 0,0.985 0,1.579 -1.236,0 -2.403,0 -3.693,0 0,-0.422 0,-0.824 0,-1.228 0,-11.81 0.104,-23.622 -0.036,-35.43 -0.097,-8.079 6.793,-13.055 12.971,-13.015 11.893,0.075 23.786,0.022 35.679,0.022 0.326,0 0.651,0 1.082,0 z"
         id="path3159" />
    </g>
    <flowRoot
       xml:space="preserve"
       id="flowRoot3369"
       style="font-size:14px;font-style:normal;font-variant:normal;font-weight:bold;font-stretch:normal;text-align:start;line-height:125%;letter-spacing:0px;word-spacing:0px;writing-mode:lr-tb;text-anchor:start;fill:#000000;fill-opacity:1;stroke:none;font-family:Roboto;-inkscape-font-specification:Sans Bold"
       transform="matrix(7.8896433,0,0,7.8896433,-843.68183,-1873.5852)"><flowRegion
         id="flowRegion3371"><rect
           id="rect3373"
           width="428.30469"
           height="35.355339"
           x="111.11678"
           y="349.29602"
           style="fill:#000000" /></flowRegion><flowPara
         id="flowPara3375">the first remote control for google glass</flowPara></flowRoot>    <flowRoot
       xml:space="preserve"
       id="flowRoot3377"
       style="font-size:14px;font-style:normal;font-variant:normal;font-weight:bold;font-stretch:normal;text-align:start;line-height:125%;letter-spacing:0px;word-spacing:0px;writing-mode:lr-tb;text-anchor:start;fill:#000000;fill-opacity:1;stroke:none;font-family:Roboto;-inkscape-font-specification:Sans Bold"
       transform="matrix(4.4049804,0,0,4.4049804,-456.63365,-597.48641)"><flowRegion
         id="flowRegion3379"><rect
           id="rect3381"
           width="41.416256"
           height="17.172594"
           x="534.37067"
           y="275.55487" /></flowRegion><flowPara
         id="flowPara3383"
         style="font-style:normal;font-variant:normal;font-weight:bold;font-stretch:normal;font-family:Arial;-inkscape-font-specification:Arial Bold">TM</flowPara></flowRoot>  </g>
  <g
     transform="translate(0,-552.36218)"
     inkscape:label="logo blanco copia"
     id="g3404"
     inkscape:groupmode="layer"
     style="display:inline">
    <g
       id="g4819"
       inkscape:export-filename="/Users/intes/Dropbox/Aglass/imagenes web remotte/remotte-logo/LOGO NEGRO.png"
       inkscape:export-xdpi="90"
       inkscape:export-ydpi="90"
       transform="translate(6,16)">
      <path
         id="path3408"
         d="m 317.02658,772.45105 c 0,19.32465 -0.40085,37.77271 0.11013,56.19433 0.53741,19.32906 19.55371,36.8829 39.38933,36.91374 52.04044,0.0837 104.07647,0.0308 156.11691,0.0308 2.16725,0 4.32569,0 6.84534,0 0,5.51944 0,10.68649 0,16.25879 -1.33911,0.0617 -2.5681,0.17179 -3.79709,0.17179 -52.40165,0.009 -104.8077,0.0749 -157.20935,-0.022 -26.93645,-0.0485 -49.66615,-16.84905 -55.97849,-41.32753 -1.17172,-4.54154 -1.71353,-9.36058 -1.73556,-14.05629 -0.14096,-35.23985 -0.21584,-70.47969 -0.004,-105.71953 0.0881,-14.25452 4.65166,-27.28445 13.30744,-38.65371 9.74382,-12.80087 23.34199,-18.91058 38.95324,-19.1044 38.52156,-0.47573 77.06073,-0.65634 115.57347,0 28.52225,0.48896 52.41046,25.80878 52.30474,53.7716 -0.10572,29.23145 -23.78249,54.8332 -52.79809,55.23845 -48.01429,0.66516 -96.04179,0.2643 -144.06048,0.30835 -2.14963,-0.004 -4.29045,-0.004 -7.01714,-0.004 z m 0.21585,-16.29843 c 2.67382,0 4.83226,0 6.9863,0 45.83822,0 91.67645,-0.27311 137.51027,0.12775 18.42603,0.16298 30.14328,-8.89807 38.32333,-24.20097 12.88016,-24.11286 -8.11838,-52.41045 -31.17405,-52.66154 -37.42912,-0.40966 -74.87585,-0.49336 -112.29616,0.14096 -21.61965,0.36562 -37.82116,15.01658 -39.17349,34.7597 -0.93386,13.6158 -0.1762,27.33731 -0.1762,41.8341 z"
         clip-rule="evenodd"
         inkscape:connector-curvature="0"
         style="fill:#000000;fill-rule:evenodd;stroke-width:4;stroke-miterlimit:4;stroke-dasharray:none;stroke:#000000;stroke-opacity:1" />
      <path
         id="path3410"
         d="m 1687.9137,772.45105 c 0,19.69467 -0.7356,38.69335 0.2115,57.60833 0.9515,19.04273 20.0074,35.48652 39.5391,35.50855 51.8554,0.0617 103.7153,0.022 155.5707,0.022 2.1804,0 4.3653,0 6.9863,0 0,5.34765 0,10.52791 0,16.13104 -1.4449,0.0925 -3.0218,0.29073 -4.59,0.29073 -52.0448,0.0176 -104.0809,0.0705 -156.1213,-0.004 -27.0378,-0.0397 -49.7102,-16.63762 -56.1151,-41.1249 -1.2334,-4.70893 -1.7928,-9.71739 -1.8104,-14.5937 -0.1498,-35.05484 -0.2026,-70.11407 -0.018,-105.16891 0.075,-14.26332 4.5811,-27.29326 13.1797,-38.70216 9.6865,-12.84932 23.2583,-19.06035 38.8651,-19.26298 38.7022,-0.49776 77.4264,-0.7136 116.1153,0.0176 28.509,0.53741 52.221,26.05106 51.9788,54.06673 -0.2599,29.20943 -24.016,54.52926 -53.1241,54.93011 -45.64,0.62991 -91.2932,0.24668 -136.942,0.29073 -4.3566,-0.004 -8.7131,-0.009 -13.726,-0.009 z m 0.1234,-16.29843 c 2.7135,0 4.8807,0 7.048,0 45.8382,0 91.6764,-0.2687 137.5102,0.12334 18.4261,0.16298 30.1213,-8.9333 38.2881,-24.24501 12.8405,-24.05119 -8.1316,-52.37962 -31.2401,-52.61749 -37.4291,-0.38764 -74.8715,-0.49336 -112.2962,0.15858 -21.6152,0.37442 -37.8079,15.07384 -39.1338,34.79934 -0.9074,13.61139 -0.1762,27.3285 -0.1762,41.78124 z"
         clip-rule="evenodd"
         inkscape:connector-curvature="0"
         style="fill:#000000;fill-rule:evenodd;stroke-width:4;stroke-miterlimit:4;stroke-dasharray:none;stroke:#000000;stroke-opacity:1" />
      <path
         id="path3412"
         d="m 958.101,882.02494 c -17.34681,0 -34.68922,0.0396 -52.03163,-0.004 -33.49987,-0.10131 -57.47618,-24.20977 -57.4894,-57.76251 -0.0132,-35.41604 -0.0176,-70.82768 0.004,-106.24372 0.0176,-31.33263 23.63712,-55.06225 54.97856,-55.12392 35.78165,-0.0705 71.55891,-0.0705 107.34057,0 32.1696,0.0617 56.4674,24.35073 56.5159,56.44541 0.049,35.59665 0.1145,71.1933 -0.022,106.78554 -0.1013,26.36381 -16.6729,48.27418 -41.0148,54.15923 -5.2551,1.27304 -10.8318,1.60342 -16.2676,1.66949 -17.3336,0.20704 -34.6716,0.0749 -52.01401,0.0749 z M 864.85197,771.49076 c 0.022,0 0.0485,0 0.0749,0 0,17.52742 -0.44491,35.06805 0.10572,52.58225 0.75765,24.02477 17.45693,41.0368 41.45967,41.50373 33.40297,0.64313 66.82796,0.80171 100.22654,0.1762 27.1567,-0.51098 43.5036,-16.80941 44.1335,-44.11588 0.7488,-32.66734 0.7092,-65.37431 0.01,-98.03724 -0.5462,-25.15685 -18.2851,-43.45073 -42.7107,-43.9573 -33.94478,-0.70921 -67.9292,-0.67837 -101.87398,-0.009 -24.56658,0.48014 -40.64916,17.30276 -41.33634,42.02791 -0.45812,16.58916 -0.0881,33.21356 -0.0881,49.82914 z"
         clip-rule="evenodd"
         inkscape:connector-curvature="0"
         style="fill:#000000;fill-rule:evenodd;stroke-width:4;stroke-miterlimit:4;stroke-dasharray:none;stroke:#000000;stroke-opacity:1" />
      <path
         id="path3414"
         d="m 795.9801,881.74742 c -5.77493,0 -10.64684,0 -16.13985,0 0,-2.41393 0,-4.55915 0,-6.69997 0,-51.50303 0.0485,-103.00166 -0.0264,-154.50469 -0.0308,-20.90604 -11.76129,-35.8169 -31.50442,-40.47296 -1.0616,-0.24668 -2.14522,-0.59908 -3.21563,-0.59908 -14.60692,-0.0881 -29.21383,-0.11893 -43.82515,-0.16739 -1.79723,-0.004 -3.59447,0 -5.84541,0 0,31.01106 0,61.61246 0,92.68079 -5.97756,0 -11.51462,0 -17.74326,0 0,-30.58818 0,-61.32614 0,-92.17862 -17.04728,0 -33.54393,-1.29947 -49.74104,0.33478 -19.4612,1.96462 -34.59672,21.74739 -34.63636,42.60056 -0.0969,50.7674 -0.0352,101.53921 -0.0352,152.31101 0,2.14523 0,4.28605 0,6.69998 -5.55468,0 -10.59398,0 -16.43498,0 0,-1.90736 0,-3.83674 0,-5.75291 0,-51.86424 -0.0264,-103.73288 0.009,-155.60153 0.022,-33.13866 24.22298,-57.44094 57.3132,-57.51142 35.24425,-0.0705 70.4929,-0.0705 105.73715,0 31.07713,0.0617 56.05337,25.00707 56.0798,56.00492 0.0485,52.41046 0.0132,104.82973 0.0132,157.24018 -0.004,1.78402 -0.004,3.56804 -0.004,5.61635 z"
         clip-rule="evenodd"
         inkscape:connector-curvature="0"
         style="fill:#000000;fill-rule:evenodd;stroke-width:4;stroke-miterlimit:4;stroke-dasharray:none;stroke:#000000;stroke-opacity:1" />
      <path
         id="path3416"
         d="m 1342.6294,717.36677 c 0,5.99077 0,10.89792 0,16.40415 -67.3302,0 -134.5898,0 -202.7437,0 0,2.48881 0,4.39617 0,6.30793 0,28.12139 -0.026,56.24719 0.01,84.36418 0.035,23.12174 18.1618,41.13811 41.3892,41.14252 51.4899,0.0176 102.9885,0.004 154.4871,0.004 2.1452,0 4.2905,0 6.7132,0 0,5.52385 0,10.56755 0,16.03854 -1.2995,0.12774 -2.6782,0.37883 -4.0658,0.37883 -52.5867,0.0176 -105.1865,0.12774 -157.7732,-0.0352 -26.3153,-0.0837 -48.7323,-16.91072 -55.1283,-40.99716 -1.066,-4.01734 -1.7884,-8.25933 -1.7972,-12.40002 -0.119,-54.23412 -0.093,-108.47264 -0.093,-162.70676 0,-0.72241 0.093,-1.44043 0.1718,-2.57691 5.2023,0 10.3738,0 16.043,0 0,17.74767 0,35.56581 0,54.07113 67.7354,0.004 134.9994,0.004 202.7877,0.004 z"
         clip-rule="evenodd"
         inkscape:connector-curvature="0"
         style="fill:#000000;fill-rule:evenodd;stroke-width:4;stroke-miterlimit:4;stroke-dasharray:none;stroke:#000000;stroke-opacity:1" />
      <path
         id="path3418"
         d="m 1412.7919,717.45927 c 67.8103,0 134.9378,0 202.4397,0 0,5.66481 0,10.83185 0,16.59356 -67.3786,0 -134.6515,0 -202.2415,0 -0.1013,2.33464 -0.2467,4.10985 -0.2555,5.88506 -0.01,28.12139 -0.035,56.24719 0,84.36859 0.031,23.19222 18.0869,41.26585 41.2483,41.27907 51.4986,0.0176 102.9972,0.004 154.4914,0.004 2.1585,0 4.3125,0 6.8013,0 0,5.5679 0,10.73494 0,16.43499 -1.6034,0 -3.0174,0 -4.427,0 -52.2254,0 -104.4553,0.0749 -156.6807,-0.0264 -26.9012,-0.0529 -49.6398,-16.93275 -55.9389,-41.40682 -1.0748,-4.20235 -1.6827,-8.63817 -1.6915,-12.96826 -0.1145,-53.5073 -0.075,-107.01019 -0.075,-160.52189 0,-1.22459 0,-2.45798 0,-3.95127 5.5459,0 10.5896,0 16.3249,0 0,17.91946 0,35.86535 0,54.309 z"
         clip-rule="evenodd"
         inkscape:connector-curvature="0"
         style="fill:#000000;fill-rule:evenodd;stroke-width:4;stroke-miterlimit:4;stroke-dasharray:none;stroke:#000000;stroke-opacity:1" />
      <path
         id="path3420"
         d="m 246.75834,662.87276 c 0,5.77933 0,10.81863 0,16.43498 -2.36988,0 -4.5063,0 -6.63831,0 -51.66161,0 -103.31881,-0.004 -154.980425,0 -22.791368,0.004 -40.992747,18.09125 -41.010367,40.88703 -0.04405,51.4766 -0.01322,102.9532 -0.01322,154.4342 0,2.16725 0,4.33891 0,6.95547 -5.444556,0 -10.585168,0 -16.267593,0 0,-1.8589 0,-3.62971 0,-5.40932 0,-52.02282 0.458118,-104.05445 -0.158579,-156.06845 -0.427283,-35.58784 29.923032,-57.50702 57.137001,-57.33082 52.388433,0.33037 104.776873,0.0969 157.165303,0.0969 1.43602,0 2.86764,0 4.76619,0 z"
         clip-rule="evenodd"
         inkscape:connector-curvature="0"
         style="fill:#000000;fill-rule:evenodd;stroke:#000000;stroke-opacity:1;stroke-width:4;stroke-miterlimit:4;stroke-dasharray:none" />
      <flowRoot
         xml:space="preserve"
         id="flowRoot3430"
         style="font-size:14px;font-style:normal;font-variant:normal;font-weight:bold;font-stretch:normal;text-align:start;line-height:125%;letter-spacing:0px;word-spacing:0px;writing-mode:lr-tb;text-anchor:start;fill:#000000;fill-opacity:1;stroke:none;font-family:Roboto;-inkscape-font-specification:Sans Bold;stroke-width:3.22964389;stroke-miterlimit:4;stroke-dasharray:none"
         transform="matrix(3.0963166,0,0,3.0963166,243.0772,-204.83818)"><flowRegion
           id="flowRegion3432"><rect
             id="rect3434"
             width="41.416256"
             height="17.172594"
             x="534.37067"
             y="275.55487"
             style="stroke-width:3.22964389;stroke-miterlimit:4;stroke-dasharray:none" /></flowRegion><flowPara
           id="flowPara3436"
           style="font-style:normal;font-variant:normal;font-weight:bold;font-stretch:normal;font-family:Arial;-inkscape-font-specification:Arial Bold;stroke-width:3.22964389;stroke-miterlimit:4;stroke-dasharray:none">TM</flowPara></flowRoot>    </g>
  </g>
  <g
     style="display:none"
     inkscape:groupmode="layer"
     id="g4890"
     inkscape:label="logo blanco copia copia"
     transform="translate(0,-552.36218)">
    <g
       id="g4892"
       style="fill:#ffffff"
       inkscape:export-filename="/Users/intes/Dropbox/Aglass/imagenes web remotte/remotte-logo/LOGO BLANCO.png"
       inkscape:export-xdpi="90"
       inkscape:export-ydpi="90"
       transform="translate(2,24)">
      <path
         style="fill:#ffffff;fill-rule:evenodd"
         inkscape:connector-curvature="0"
         clip-rule="evenodd"
         d="m 317.02658,772.45105 c 0,19.32465 -0.40085,37.77271 0.11013,56.19433 0.53741,19.32906 19.55371,36.8829 39.38933,36.91374 52.04044,0.0837 104.07647,0.0308 156.11691,0.0308 2.16725,0 4.32569,0 6.84534,0 0,5.51944 0,10.68649 0,16.25879 -1.33911,0.0617 -2.5681,0.17179 -3.79709,0.17179 -52.40165,0.009 -104.8077,0.0749 -157.20935,-0.022 -26.93645,-0.0485 -49.66615,-16.84905 -55.97849,-41.32753 -1.17172,-4.54154 -1.71353,-9.36058 -1.73556,-14.05629 -0.14096,-35.23985 -0.21584,-70.47969 -0.004,-105.71953 0.0881,-14.25452 4.65166,-27.28445 13.30744,-38.65371 9.74382,-12.80087 23.34199,-18.91058 38.95324,-19.1044 38.52156,-0.47573 77.06073,-0.65634 115.57347,0 28.52225,0.48896 52.41046,25.80878 52.30474,53.7716 -0.10572,29.23145 -23.78249,54.8332 -52.79809,55.23845 -48.01429,0.66516 -96.04179,0.2643 -144.06048,0.30835 -2.14963,-0.004 -4.29045,-0.004 -7.01714,-0.004 z m 0.21585,-16.29843 c 2.67382,0 4.83226,0 6.9863,0 45.83822,0 91.67645,-0.27311 137.51027,0.12775 18.42603,0.16298 30.14328,-8.89807 38.32333,-24.20097 12.88016,-24.11286 -8.11838,-52.41045 -31.17405,-52.66154 -37.42912,-0.40966 -74.87585,-0.49336 -112.29616,0.14096 -21.61965,0.36562 -37.82116,15.01658 -39.17349,34.7597 -0.93386,13.6158 -0.1762,27.33731 -0.1762,41.8341 z"
         id="path4894" />
      <path
         style="fill:#ffffff;fill-rule:evenodd"
         inkscape:connector-curvature="0"
         clip-rule="evenodd"
         d="m 1687.9137,772.45105 c 0,19.69467 -0.7356,38.69335 0.2115,57.60833 0.9515,19.04273 20.0074,35.48652 39.5391,35.50855 51.8554,0.0617 103.7153,0.022 155.5707,0.022 2.1804,0 4.3653,0 6.9863,0 0,5.34765 0,10.52791 0,16.13104 -1.4449,0.0925 -3.0218,0.29073 -4.59,0.29073 -52.0448,0.0176 -104.0809,0.0705 -156.1213,-0.004 -27.0378,-0.0397 -49.7102,-16.63762 -56.1151,-41.1249 -1.2334,-4.70893 -1.7928,-9.71739 -1.8104,-14.5937 -0.1498,-35.05484 -0.2026,-70.11407 -0.018,-105.16891 0.075,-14.26332 4.5811,-27.29326 13.1797,-38.70216 9.6865,-12.84932 23.2583,-19.06035 38.8651,-19.26298 38.7022,-0.49776 77.4264,-0.7136 116.1153,0.0176 28.509,0.53741 52.221,26.05106 51.9788,54.06673 -0.2599,29.20943 -24.016,54.52926 -53.1241,54.93011 -45.64,0.62991 -91.2932,0.24668 -136.942,0.29073 -4.3566,-0.004 -8.7131,-0.009 -13.726,-0.009 z m 0.1234,-16.29843 c 2.7135,0 4.8807,0 7.048,0 45.8382,0 91.6764,-0.2687 137.5102,0.12334 18.4261,0.16298 30.1213,-8.9333 38.2881,-24.24501 12.8405,-24.05119 -8.1316,-52.37962 -31.2401,-52.61749 -37.4291,-0.38764 -74.8715,-0.49336 -112.2962,0.15858 -21.6152,0.37442 -37.8079,15.07384 -39.1338,34.79934 -0.9074,13.61139 -0.1762,27.3285 -0.1762,41.78124 z"
         id="path4896" />
      <path
         style="fill:#ffffff;fill-rule:evenodd"
         inkscape:connector-curvature="0"
         clip-rule="evenodd"
         d="m 958.101,882.02494 c -17.34681,0 -34.68922,0.0396 -52.03163,-0.004 -33.49987,-0.10131 -57.47618,-24.20977 -57.4894,-57.76251 -0.0132,-35.41604 -0.0176,-70.82768 0.004,-106.24372 0.0176,-31.33263 23.63712,-55.06225 54.97856,-55.12392 35.78165,-0.0705 71.55891,-0.0705 107.34057,0 32.1696,0.0617 56.4674,24.35073 56.5159,56.44541 0.049,35.59665 0.1145,71.1933 -0.022,106.78554 -0.1013,26.36381 -16.6729,48.27418 -41.0148,54.15923 -5.2551,1.27304 -10.8318,1.60342 -16.2676,1.66949 -17.3336,0.20704 -34.6716,0.0749 -52.01401,0.0749 z M 864.85197,771.49076 c 0.022,0 0.0485,0 0.0749,0 0,17.52742 -0.44491,35.06805 0.10572,52.58225 0.75765,24.02477 17.45693,41.0368 41.45967,41.50373 33.40297,0.64313 66.82796,0.80171 100.22654,0.1762 27.1567,-0.51098 43.5036,-16.80941 44.1335,-44.11588 0.7488,-32.66734 0.7092,-65.37431 0.01,-98.03724 -0.5462,-25.15685 -18.2851,-43.45073 -42.7107,-43.9573 -33.94478,-0.70921 -67.9292,-0.67837 -101.87398,-0.009 -24.56658,0.48014 -40.64916,17.30276 -41.33634,42.02791 -0.45812,16.58916 -0.0881,33.21356 -0.0881,49.82914 z"
         id="path4898" />
      <path
         style="fill:#ffffff;fill-rule:evenodd"
         inkscape:connector-curvature="0"
         clip-rule="evenodd"
         d="m 795.9801,881.74742 c -5.77493,0 -10.64684,0 -16.13985,0 0,-2.41393 0,-4.55915 0,-6.69997 0,-51.50303 0.0485,-103.00166 -0.0264,-154.50469 -0.0308,-20.90604 -11.76129,-35.8169 -31.50442,-40.47296 -1.0616,-0.24668 -2.14522,-0.59908 -3.21563,-0.59908 -14.60692,-0.0881 -29.21383,-0.11893 -43.82515,-0.16739 -1.79723,-0.004 -3.59447,0 -5.84541,0 0,31.01106 0,61.61246 0,92.68079 -5.97756,0 -11.51462,0 -17.74326,0 0,-30.58818 0,-61.32614 0,-92.17862 -17.04728,0 -33.54393,-1.29947 -49.74104,0.33478 -19.4612,1.96462 -34.59672,21.74739 -34.63636,42.60056 -0.0969,50.7674 -0.0352,101.53921 -0.0352,152.31101 0,2.14523 0,4.28605 0,6.69998 -5.55468,0 -10.59398,0 -16.43498,0 0,-1.90736 0,-3.83674 0,-5.75291 0,-51.86424 -0.0264,-103.73288 0.009,-155.60153 0.022,-33.13866 24.22298,-57.44094 57.3132,-57.51142 35.24425,-0.0705 70.4929,-0.0705 105.73715,0 31.07713,0.0617 56.05337,25.00707 56.0798,56.00492 0.0485,52.41046 0.0132,104.82973 0.0132,157.24018 -0.004,1.78402 -0.004,3.56804 -0.004,5.61635 z"
         id="path4900" />
      <path
         style="fill:#ffffff;fill-rule:evenodd"
         inkscape:connector-curvature="0"
         clip-rule="evenodd"
         d="m 1342.6294,717.36677 c 0,5.99077 0,10.89792 0,16.40415 -67.3302,0 -134.5898,0 -202.7437,0 0,2.48881 0,4.39617 0,6.30793 0,28.12139 -0.026,56.24719 0.01,84.36418 0.035,23.12174 18.1618,41.13811 41.3892,41.14252 51.4899,0.0176 102.9885,0.004 154.4871,0.004 2.1452,0 4.2905,0 6.7132,0 0,5.52385 0,10.56755 0,16.03854 -1.2995,0.12774 -2.6782,0.37883 -4.0658,0.37883 -52.5867,0.0176 -105.1865,0.12774 -157.7732,-0.0352 -26.3153,-0.0837 -48.7323,-16.91072 -55.1283,-40.99716 -1.066,-4.01734 -1.7884,-8.25933 -1.7972,-12.40002 -0.119,-54.23412 -0.093,-108.47264 -0.093,-162.70676 0,-0.72241 0.093,-1.44043 0.1718,-2.57691 5.2023,0 10.3738,0 16.043,0 0,17.74767 0,35.56581 0,54.07113 67.7354,0.004 134.9994,0.004 202.7877,0.004 z"
         id="path4902" />
      <path
         style="fill:#ffffff;fill-rule:evenodd"
         inkscape:connector-curvature="0"
         clip-rule="evenodd"
         d="m 1412.7919,717.45927 c 67.8103,0 134.9378,0 202.4397,0 0,5.66481 0,10.83185 0,16.59356 -67.3786,0 -134.6515,0 -202.2415,0 -0.1013,2.33464 -0.2467,4.10985 -0.2555,5.88506 -0.01,28.12139 -0.035,56.24719 0,84.36859 0.031,23.19222 18.0869,41.26585 41.2483,41.27907 51.4986,0.0176 102.9972,0.004 154.4914,0.004 2.1585,0 4.3125,0 6.8013,0 0,5.5679 0,10.73494 0,16.43499 -1.6034,0 -3.0174,0 -4.427,0 -52.2254,0 -104.4553,0.0749 -156.6807,-0.0264 -26.9012,-0.0529 -49.6398,-16.93275 -55.9389,-41.40682 -1.0748,-4.20235 -1.6827,-8.63817 -1.6915,-12.96826 -0.1145,-53.5073 -0.075,-107.01019 -0.075,-160.52189 0,-1.22459 0,-2.45798 0,-3.95127 5.5459,0 10.5896,0 16.3249,0 0,17.91946 0,35.86535 0,54.309 z"
         id="path4904" />
      <path
         style="fill:#ffffff;fill-rule:evenodd"
         inkscape:connector-curvature="0"
         clip-rule="evenodd"
         d="m 246.75834,662.87276 c 0,5.77933 0,10.81863 0,16.43498 -2.36988,0 -4.5063,0 -6.63831,0 -51.66161,0 -103.31881,-0.004 -154.980425,0 -22.791368,0.004 -40.992747,18.09125 -41.010367,40.88703 -0.04405,51.4766 -0.01322,102.9532 -0.01322,154.4342 0,2.16725 0,4.33891 0,6.95547 -5.444556,0 -10.585168,0 -16.267593,0 0,-1.8589 0,-3.62971 0,-5.40932 0,-52.02282 0.458118,-104.05445 -0.158579,-156.06845 -0.427283,-35.58784 29.923032,-57.50702 57.137001,-57.33082 52.388433,0.33037 104.776873,0.0969 157.165303,0.0969 1.43602,0 2.86764,0 4.76619,0 z"
         id="path4906" />
      <flowRoot
         transform="matrix(3.0963166,0,0,3.0963166,243.0772,-204.83818)"
         style="font-size:14px;font-style:normal;font-variant:normal;font-weight:bold;font-stretch:normal;text-align:start;line-height:125%;letter-spacing:0px;word-spacing:0px;writing-mode:lr-tb;text-anchor:start;fill:#ffffff;fill-opacity:1;stroke:none;font-family:Roboto;-inkscape-font-specification:Sans Bold"
         id="flowRoot4908"
         xml:space="preserve"><flowRegion
           id="flowRegion4910"><rect
             y="275.55487"
             x="534.37067"
             height="17.172594"
             width="41.416256"
             id="rect4912"
             style="fill:#ffffff" /></flowRegion><flowPara
           style="font-style:normal;font-variant:normal;font-weight:bold;font-stretch:normal;fill:#ffffff;font-family:Arial;-inkscape-font-specification:Arial Bold"
           id="flowPara4914">TM</flowPara></flowRoot>    </g>
  </g>
</svg>
