<?xml version="1.0" encoding="UTF-8" ?>
<!DOCTYPE svg PUBLIC "-//W3C//DTD SVG 1.1//EN" "http://www.w3.org/Graphics/SVG/1.1/DTD/svg11.dtd">
<svg width="819pt" height="819pt" viewBox="0 0 819 819" version="1.1" xmlns="http://www.w3.org/2000/svg">
<path fill="#fefefe" d=" M 0.00 0.00 L 819.00 0.00 L 819.00 819.00 L 0.00 819.00 L 0.00 0.00 Z" />
<path fill="#040404" d=" M 48.35 192.35 C 49.82 191.82 51.40 191.77 52.95 191.78 C 86.30 191.85 119.66 191.73 153.02 191.84 C 165.83 193.42 177.83 201.64 183.68 213.21 C 218.25 270.71 252.60 328.34 287.11 385.88 C 290.33 391.20 294.13 396.57 294.62 402.98 C 294.87 410.36 295.37 418.15 291.87 424.93 C 261.63 475.64 230.94 526.08 200.67 576.77 C 194.67 586.70 188.47 596.51 182.69 606.57 C 176.84 617.07 165.87 624.53 154.06 626.41 C 120.36 626.48 86.66 626.38 52.96 626.46 C 46.75 627.42 40.29 621.31 41.56 615.01 C 42.53 610.99 44.87 607.53 46.99 604.06 C 58.44 585.41 69.26 566.37 80.70 547.71 C 101.86 512.48 122.87 477.17 143.95 441.89 C 147.50 435.43 151.90 429.43 154.93 422.70 C 158.36 413.15 158.64 402.02 154.05 392.80 C 139.91 369.31 125.83 345.78 111.67 322.30 C 91.22 288.70 71.29 254.78 50.79 221.21 C 47.96 216.37 44.81 211.70 42.29 206.69 C 39.70 201.29 42.10 193.75 48.35 192.35 Z" />
<path fill="#040404" d=" M 401.17 252.13 C 422.62 249.19 444.88 251.98 464.85 260.38 C 465.18 269.23 464.92 278.10 464.99 286.97 C 449.78 278.72 432.38 273.70 414.98 275.33 C 405.63 276.17 396.19 279.72 389.74 286.75 C 382.33 294.51 379.47 305.48 379.08 315.96 C 378.69 326.84 380.22 338.36 386.49 347.54 C 391.42 354.93 399.44 359.94 408.09 361.75 C 417.88 363.80 428.21 363.34 437.78 360.42 C 438.27 351.63 437.88 342.81 437.99 334.01 C 430.99 333.98 424.00 334.01 417.00 334.00 C 417.00 326.33 417.00 318.67 417.00 311.00 C 434.67 311.00 452.33 311.00 470.00 311.00 C 470.00 332.31 470.00 353.61 470.00 374.91 C 449.89 384.53 427.14 388.41 404.97 386.51 C 388.29 385.07 371.62 378.33 360.29 365.69 C 348.87 353.48 344.00 336.46 343.99 320.01 C 343.71 303.63 347.96 286.52 358.95 273.97 C 369.51 261.52 385.18 254.32 401.17 252.13 Z" />
<path fill="#040404" d=" M 697.40 252.25 C 719.08 249.11 741.63 251.89 761.84 260.37 C 762.20 269.23 761.91 278.10 761.99 286.97 C 746.78 278.72 729.38 273.70 711.98 275.33 C 702.63 276.17 693.19 279.72 686.74 286.75 C 679.33 294.52 676.47 305.48 676.08 315.97 C 675.69 326.84 677.22 338.36 683.49 347.54 C 688.42 354.93 696.44 359.94 705.08 361.74 C 714.87 363.80 725.20 363.34 734.78 360.42 C 735.27 351.63 734.88 342.81 734.99 334.01 C 727.99 333.99 721.00 334.01 714.00 334.00 C 713.99 326.33 714.00 318.67 714.00 311.00 C 731.67 311.00 749.33 311.00 767.00 311.00 C 767.00 332.31 767.00 353.61 767.00 374.91 C 746.89 384.53 724.15 388.41 701.98 386.51 C 685.29 385.08 668.62 378.33 657.29 365.69 C 645.87 353.48 641.00 336.47 640.99 320.02 C 640.72 303.87 644.83 287.01 655.49 274.51 C 665.89 261.96 681.45 254.56 697.40 252.25 Z" />
<path fill="#040404" d=" M 500.00 253.00 C 516.34 253.11 532.69 252.75 549.03 253.24 C 563.85 253.95 579.35 255.04 592.57 262.48 C 607.57 270.73 618.57 285.83 621.56 302.73 C 624.74 320.62 623.10 340.37 612.86 355.84 C 603.65 369.81 588.20 379.05 571.75 381.56 C 548.03 385.38 523.91 383.57 500.00 384.00 C 500.00 340.33 500.00 296.67 500.00 253.00 Z" />
<path fill="#fefefe" d=" M 534.01 278.01 C 545.36 278.02 557.28 277.25 567.88 282.11 C 576.70 285.88 583.41 293.85 585.95 303.07 C 588.78 313.38 588.73 324.58 585.60 334.82 C 582.76 344.15 575.53 351.94 566.44 355.46 C 556.18 359.74 544.87 358.96 534.01 358.99 C 533.99 332.00 533.99 305.00 534.01 278.01 Z" />
<path fill="#040404" d=" M 544.39 460.25 C 566.08 457.11 588.63 459.89 608.85 468.37 C 609.20 477.23 608.91 486.10 608.99 494.97 C 593.78 486.72 576.38 481.70 558.98 483.33 C 549.63 484.17 540.20 487.72 533.74 494.75 C 526.33 502.51 523.47 513.48 523.08 523.96 C 522.69 534.83 524.22 546.36 530.49 555.54 C 535.42 562.93 543.44 567.93 552.08 569.74 C 561.87 571.80 572.20 571.34 581.78 568.42 C 582.27 559.63 581.88 550.81 581.99 542.01 C 574.99 541.98 568.00 542.01 561.00 542.00 C 561.00 534.33 560.99 526.67 561.00 519.00 C 578.67 519.00 596.33 519.00 614.00 519.00 C 614.00 540.31 614.00 561.61 614.00 582.91 C 593.89 592.53 571.15 596.41 548.97 594.51 C 532.29 593.07 515.62 586.33 504.29 573.69 C 492.88 561.48 488.00 544.47 487.99 528.02 C 487.72 511.86 491.83 495.01 502.49 482.50 C 512.89 469.96 528.45 462.57 544.39 460.25 Z" />
<path fill="#040404" d=" M 356.00 461.00 C 396.67 461.00 437.33 461.00 478.00 461.00 C 478.00 469.33 478.00 477.66 478.00 486.00 C 463.33 486.01 448.67 485.98 434.01 486.01 C 433.98 521.34 434.01 556.67 434.00 592.00 C 422.67 592.00 411.33 592.00 400.00 592.00 C 399.99 556.67 400.02 521.34 399.99 486.01 C 385.33 485.98 370.66 486.01 356.00 486.00 C 356.00 477.66 356.00 469.33 356.00 461.00 Z" />
<path fill="#040404" d=" M 644.00 461.00 C 656.60 461.01 669.19 460.98 681.79 461.01 C 697.85 490.81 713.67 520.75 729.92 550.44 C 730.10 520.63 729.95 490.81 730.00 461.00 C 740.67 461.00 751.33 461.00 762.00 461.00 C 762.00 504.67 762.00 548.33 762.00 592.00 C 749.40 591.99 736.81 592.02 724.21 591.99 C 708.14 562.19 692.33 532.26 676.08 502.57 C 675.90 532.38 676.05 562.19 676.00 592.00 C 665.33 592.00 654.67 592.00 644.00 592.00 C 644.00 548.33 644.00 504.67 644.00 461.00 Z" />
</svg>
